<?xml version="1.0" encoding="UTF-8"?>
<svg xmlns="http://www.w3.org/2000/svg" xmlns:xlink="http://www.w3.org/1999/xlink" width="24pt" height="24pt" viewBox="0 0 24 24" version="1.1">
<defs>
<linearGradient id="linear0" gradientUnits="userSpaceOnUse" x1="468.5" y1="286.5" x2="710.864" y2="883.047" gradientTransform="matrix(0.0222222,0,0,0.0222222,0,0)">
<stop offset="0" style="stop-color:rgb(41.960784%,74.901961%,92.54902%);stop-opacity:0.701961;"/>
<stop offset="1" style="stop-color:rgb(12.941176%,62.745098%,88.235294%);stop-opacity:1;"/>
</linearGradient>
<linearGradient id="linear1" gradientUnits="userSpaceOnUse" x1="346" y1="191" x2="700.902" y2="900.799" >
<stop offset="0" style="stop-color:rgb(46.666667%,76.862745%,92.941176%);stop-opacity:1;"/>
<stop offset="1" style="stop-color:rgb(12.54902%,62.745098%,88.235294%);stop-opacity:1;"/>
</linearGradient>
</defs>
<g id="surface1">
<path style=" stroke:none;fill-rule:nonzero;fill:url(#linear0);" d="M 16.21875 8.582031 L 14.710938 15.6875 C 14.597656 16.1875 14.300781 16.3125 13.878906 16.074219 L 11.585938 14.382812 L 10.476562 15.449219 C 10.355469 15.570312 10.253906 15.675781 10.015625 15.675781 L 10.183594 13.335938 L 14.433594 9.492188 C 14.621094 9.328125 14.394531 9.238281 14.148438 9.402344 L 8.890625 12.714844 L 6.625 12.003906 C 6.132812 11.851562 6.125 11.511719 6.726562 11.277344 L 15.582031 7.863281 C 15.992188 7.710938 16.351562 7.957031 16.21875 8.582031 Z M 16.21875 8.582031 "/>
<path style="fill:none;stroke-width:27;stroke-linecap:butt;stroke-linejoin:miter;stroke:url(#linear1);stroke-miterlimit:4;" d="M 537.539062 159.433594 C 747.421875 159.433594 917.578125 329.589844 917.578125 539.472656 C 917.578125 749.355469 747.421875 919.511719 537.539062 919.511719 C 327.65625 919.511719 157.5 749.355469 157.5 539.472656 C 157.5 329.589844 327.65625 159.433594 537.539062 159.433594 Z M 537.539062 159.433594 " transform="matrix(0.0222222,0,0,0.0222222,0,0)"/>
</g>
</svg>
